<svg width="509" height="66" viewBox="0 0 509 66" fill="none" xmlns="http://www.w3.org/2000/svg">
<path d="M20.6043 53.1347C20.1164 52.7861 19.7527 52.2942 19.5655 51.7294C19.3781 51.1646 19.3767 50.5558 19.5614 49.9902L20.158 47.5554C20.2645 47.1275 20.4611 46.7263 20.7349 46.3781C21.0087 46.0298 21.3537 45.7423 21.7474 45.534L23.7058 44.5188C24.9139 43.8993 25.8785 42.9008 26.4475 41.6807C27.0165 40.4606 27.1575 39.0884 26.8482 37.7805L26.8209 37.6592C26.4583 36.1946 25.5549 34.9161 24.2873 34.0737C23.0197 33.2312 21.4791 32.8855 19.9667 33.1042L17.7761 33.4141C17.3308 33.4771 16.8769 33.4465 16.4444 33.3242C16.0119 33.2019 15.6105 32.9906 15.2667 32.7043L13.3311 31.0827C12.8507 30.7282 12.4941 30.235 12.3104 29.6716C12.1268 29.1082 12.1254 28.5024 12.3064 27.9382C12.7186 26.6881 12.7067 25.3397 12.2728 24.0968C11.8389 22.854 11.0065 21.7843 9.9014 21.0495C8.79635 20.3148 7.47879 19.955 6.14798 20.0245C4.81718 20.0941 3.54553 20.5892 2.52536 21.435C1.50519 22.2807 0.791987 23.4312 0.49362 24.7123C0.195255 25.9934 0.327954 27.3356 0.871648 28.5356C1.41534 29.7358 2.34047 30.7287 3.50709 31.364C4.67371 31.9994 6.01837 32.2429 7.33772 32.0575C7.55174 32.026 7.76125 31.9811 7.97076 31.9317L8.54007 31.8239C9.01285 31.7317 9.50075 31.7465 9.96692 31.8671C10.4332 31.9877 10.8655 32.211 11.2316 32.5201L13.864 34.7662C14.2663 35.1138 14.5735 35.5555 14.7574 36.0509C14.9412 36.5462 14.9958 37.0792 14.916 37.6008L14.8523 37.9961L14.7977 38.342V38.3735C14.7121 39.0945 14.7583 39.8248 14.9343 40.5297C14.9343 40.5701 14.9343 40.6106 14.9661 40.6465V40.6914C15.2186 41.6474 15.7067 42.527 16.3871 43.2519C16.469 43.3373 16.551 43.4181 16.6376 43.499L16.9245 43.782C17.3033 44.1608 17.5784 44.6282 17.7242 45.1404C17.87 45.6527 17.8815 46.193 17.7579 46.7109L16.9564 50.0396C16.8462 50.5023 16.6301 50.934 16.3245 51.3015C16.019 51.669 15.6323 51.9626 15.1939 52.1599L14.702 52.3845C14.5012 52.4618 14.305 52.5503 14.1145 52.6496C13.2186 53.116 12.4547 53.7953 11.892 54.6261C10.9619 55.9414 10.5997 57.5673 10.885 59.146C11.1702 60.7248 12.0796 62.1271 13.4131 63.0445C14.7466 63.9615 16.3949 64.3192 17.9955 64.0376C19.5961 63.7566 21.0178 62.859 21.9479 61.5441C22.4982 60.7998 22.8676 59.9406 23.0272 59.0329C23.0689 58.8282 23.0978 58.6212 23.1137 58.413L23.1775 57.8829C23.1411 56.951 22.8906 56.0393 22.4448 55.2168C21.9991 54.3942 21.3697 53.6823 20.6043 53.1347Z" fill="#EDEDED"/>
<path d="M67.4421 24.209C67.1193 23.2338 66.5506 22.3554 65.7887 21.6564C65.0274 20.9573 64.0984 20.4606 63.0893 20.2127C62.08 19.9648 61.0234 19.974 60.0187 20.2393C59.0139 20.5045 58.094 21.0173 57.3451 21.7293C57.1854 21.8711 57.0334 22.0211 56.8897 22.1786L56.5208 22.5739C56.1943 22.9226 55.7919 23.1939 55.3439 23.3674C54.8959 23.5409 54.4138 23.6121 53.934 23.5756L50.4727 23.2971C49.9346 23.2532 49.4166 23.0751 48.9674 22.7797C48.518 22.4843 48.1522 22.0811 47.9041 21.608L47.7219 21.2532C47.6673 21.1453 47.6172 21.0421 47.558 20.9432V20.9118C47.1984 20.2771 46.7246 19.7123 46.1598 19.2452L46.0687 19.1733L46.0277 19.1374C45.2528 18.5138 44.335 18.0866 43.3544 17.893H43.318L42.9673 17.8347L42.562 17.8032C42.0296 17.7172 41.5281 17.4995 41.1044 17.1703C40.6806 16.8411 40.3485 16.4113 40.1391 15.921L38.8001 12.7765C38.6157 12.3372 38.5346 11.8624 38.563 11.3878C38.5914 10.9131 38.7285 10.4511 38.9641 10.0362L39.2328 9.58704C39.3481 9.40733 39.4529 9.22316 39.547 9.03446C39.9594 8.20871 40.173 7.30017 40.1709 6.37963C40.1274 4.80394 39.4622 3.30721 38.3169 2.20792C37.1716 1.10862 35.6367 0.49353 34.0387 0.49353C32.4405 0.49353 30.9056 1.10862 29.7603 2.20792C28.615 3.30721 27.9498 4.80394 27.9063 6.37963C27.9043 7.30017 28.1178 8.20871 28.5302 9.03446C28.6274 9.22316 28.7322 9.40733 28.8445 9.58704L29.1132 10.0362C29.3487 10.4511 29.4859 10.9131 29.5143 11.3878C29.5427 11.8624 29.4616 12.3372 29.2771 12.7765L27.9382 15.921C27.7304 16.409 27.401 16.8374 26.9806 17.1664C26.5603 17.4954 26.0625 17.7145 25.5335 17.8032L25.1373 17.8661L24.782 17.9245H24.7502C24.026 18.0651 23.3344 18.3362 22.7099 18.7241L22.6188 18.7825C22.6005 18.7903 22.5835 18.8009 22.5687 18.8139C21.724 19.3482 21.0275 20.0815 20.542 20.9477V20.9791C20.4874 21.078 20.4327 21.1858 20.3826 21.2891C17.896 26.5539 23.3383 29.4738 24.026 29.6535C24.866 29.9038 25.7491 29.982 26.6208 29.8831C27.4925 29.7842 28.3345 29.5104 29.0949 29.0785L29.2088 29.0066C30.5065 28.2124 31.4559 26.9681 31.8705 25.5184C32.2852 24.0686 32.135 22.5184 31.4495 21.1723L30.4567 19.1958C30.2581 18.7974 30.1474 18.362 30.1317 17.9184C30.116 17.4747 30.1957 17.0328 30.3656 16.6218L31.3129 14.3038C31.5045 13.7435 31.8695 13.2566 32.3565 12.9118C32.8434 12.5669 33.4278 12.3814 34.0272 12.3814C34.6267 12.3814 35.2111 12.5669 35.698 12.9118C36.185 13.2566 36.55 13.7435 36.7416 14.3038L37.7071 16.6218C37.8777 17.0325 37.9581 17.4742 37.9433 17.9179C37.9283 18.3615 37.8183 18.7971 37.6206 19.1958L36.6414 21.1543C36.0312 22.3592 35.8477 23.731 36.1201 25.0508C36.3925 26.3706 37.1051 27.5624 38.1443 28.4361L38.24 28.5215C39.0358 29.1833 39.9898 29.6338 41.0115 29.8303C42.0332 30.0268 43.0889 29.9629 44.0785 29.6445C44.9861 29.3589 45.8119 28.8647 46.4877 28.2026L48.0772 26.6797C48.3975 26.3656 48.7824 26.1229 49.2058 25.968C49.6292 25.813 50.0814 25.7493 50.5319 25.7813L53.0641 25.9699C53.6632 25.9777 54.2451 26.1691 54.729 26.5176C55.2129 26.8662 55.5749 27.3545 55.7648 27.9151C56.1519 29.092 57.1311 31.3516 60.7153 32.0299C61.7457 32.1736 62.7961 32.0564 63.7679 31.6894C64.7396 31.3223 65.6012 30.7175 66.2704 29.9318C66.9401 29.146 67.3958 28.2052 67.5953 27.1978C67.7948 26.1904 67.7306 25.1495 67.4104 24.1731L67.4421 24.209Z" fill="#EC1D35"/>
<path d="M45.307 33.3375C44.4764 33.6198 43.7138 34.0684 43.0672 34.6551C42.4207 35.2418 41.904 35.9541 41.5497 36.747C41.5497 36.7875 41.5133 36.8279 41.4996 36.8683C40.9289 38.2642 40.9057 39.8197 41.4344 41.2315C41.9632 42.6433 43.006 43.8103 44.3597 44.505L46.3226 45.5202C46.7198 45.7281 47.0681 46.0164 47.3444 46.3663C47.6207 46.7162 47.8188 47.1199 47.9257 47.5507L48.5269 49.9854C48.7107 50.5503 48.709 51.158 48.5221 51.7218C48.3351 52.2856 47.9724 52.7769 47.4858 53.1254C46.9991 53.4739 46.4134 53.6621 45.8119 53.6629C45.2105 53.6637 44.6242 53.4772 44.1365 53.13L41.9732 51.8183C41.5897 51.5873 41.2599 51.2791 41.0056 50.9137C40.7514 50.5483 40.5782 50.134 40.4976 49.698L40.1242 47.5462C39.9024 46.218 39.2369 45.001 38.2335 44.0887C37.2301 43.1762 35.9463 42.6208 34.5862 42.5105H34.4541C32.9301 42.4017 31.4198 42.8582 30.2193 43.7905C29.0188 44.7229 28.2146 46.0639 27.9643 47.5507C27.099 52.6718 31.7671 54.3383 33.5752 54.5675H33.7437C34.7428 54.6238 35.7406 54.4372 36.6493 54.0239H36.6812L37 53.8667L37.3598 53.687C37.8417 53.4475 38.3774 53.3325 38.9167 53.3529C39.4559 53.3734 39.9812 53.5285 40.443 53.8038L43.4078 55.6006C43.8197 55.8472 44.1689 56.1835 44.4286 56.5837C44.6883 56.9839 44.8517 57.4375 44.9062 57.9096L44.97 58.4397C44.9843 58.652 45.0101 58.8635 45.0474 59.0731C45.2255 60.0856 45.6621 61.0366 46.3161 61.8366C46.97 62.6366 47.8197 63.2588 48.7851 63.6454C49.7505 64.0319 50.7997 64.1696 51.8339 64.0451C52.8681 63.9207 53.8531 63.5385 54.6961 62.9351C55.5391 62.331 56.2123 61.5254 56.6523 60.594C57.0923 59.6625 57.2845 58.6358 57.2109 57.6108C57.1373 56.5857 56.8002 55.5961 56.2315 54.7351C55.6627 53.8741 54.881 53.1702 53.9601 52.6897C53.7688 52.5909 53.573 52.5056 53.3726 52.4247L52.8808 52.2001C52.4429 52.0033 52.0565 51.7103 51.751 51.3436C51.4455 50.9769 51.2291 50.5461 51.1183 50.0843L50.3167 46.7511C50.193 46.2332 50.2047 45.6929 50.3505 45.1806C50.4962 44.6684 50.7713 44.201 51.1501 43.8222L51.437 43.5392C51.5236 43.4583 51.6055 43.3775 51.6875 43.2922V43.2652C52.1891 42.7334 52.5874 42.1151 52.8625 41.4414L52.9035 41.338V41.2886C53.2653 40.3688 53.3935 39.3756 53.277 38.3956V38.3598C52.4663 32.5064 46.6186 32.8569 45.307 33.3375Z" fill="#402FFF"/>
<path d="M96.7202 59.23V54.4548H90.7997C89.4506 54.4254 88.132 54.0507 86.9742 53.3677C85.6989 52.6266 83.4398 50.1693 82.7428 49.1945C82.0565 48.1396 81.7133 46.9029 81.7591 45.6503V28.4363C81.707 27.1673 82.0507 25.9131 82.7428 24.8425C83.4398 23.9441 85.6989 21.4689 86.9742 20.7232C88.1333 20.0437 89.4513 19.6708 90.7997 19.6406H96.7202V15.0047H103.155V19.6316H108.935C110.282 19.669 111.598 20.0413 112.76 20.7142C114.036 21.4599 116.24 23.9172 116.996 24.8335C117.686 25.9051 118.03 27.1586 117.979 28.4273V45.6413C118.023 46.8937 117.68 48.1298 116.996 49.1855C116.24 50.1604 114.036 52.6176 112.76 53.3588C111.599 54.0351 110.283 54.4092 108.935 54.4459H103.155V59.2211L96.7202 59.23ZM90.9408 47.766H96.7202V26.3204H90.9999C90.1839 26.9413 89.4621 27.6734 88.8552 28.4947V45.6503C89.4449 46.4496 90.1471 47.162 90.9408 47.766ZM110.907 28.4497C110.349 27.6236 109.642 26.9063 108.821 26.3339H103.155V47.7795H108.761C109.549 47.1489 110.268 46.4399 110.907 45.6637V28.4497Z" fill="#EDEDED"/>
<path d="M148.633 29.9233C147.999 28.4476 146.927 27.1951 145.559 26.3296H135.258C134.386 26.9739 133.618 27.7448 132.98 28.6161V45.6594C133.565 46.5277 134.344 47.2516 135.258 47.7752H145.674C146.922 46.8783 147.936 45.7021 148.633 44.3432L155.242 45.9469C154.762 47.2514 154.098 48.4825 153.27 49.6035C151.876 51.5486 149.171 54.464 145.619 54.464H134.966C133.618 54.4267 132.302 54.0527 131.141 53.3769C129.924 52.6357 127.72 50.3492 126.91 49.2621C126.255 48.1931 125.913 46.9665 125.921 45.7178V28.378C125.87 27.124 126.215 25.8851 126.91 24.8337C127.602 23.9353 129.865 21.5185 131.2 20.7144C132.349 20.0603 133.641 19.689 134.966 19.6318H145.623C149.157 19.6318 151.826 22.5472 153.215 24.4339C154.038 25.5537 154.701 26.7795 155.187 28.0771L148.633 29.9233Z" fill="#EDEDED"/>
<path d="M183.98 54.1717V26.5494H169.328V54.1717H162.256V21.7877C162.258 21.2821 162.463 20.7979 162.825 20.4404C163.188 20.0828 163.679 19.8809 164.191 19.8785H189.117C189.629 19.8809 190.121 20.0828 190.483 20.4404C190.846 20.7979 191.05 21.2821 191.053 21.7877V54.1942L183.98 54.1717Z" fill="#EDEDED"/>
<path d="M212.238 36.1975V32.3383C210.852 32.3383 209.761 31.9524 208.966 31.1805C208.171 30.3944 207.773 29.3296 207.773 27.986V24.8558C207.773 23.5265 208.171 22.476 208.966 21.7041C209.774 20.9323 210.866 20.5464 212.238 20.5464V16.6872H214.103V20.5464C215.49 20.5464 216.581 20.9323 217.375 21.7041C218.17 22.476 218.567 23.5265 218.567 24.8558V27.986C218.567 29.3296 218.17 30.3944 217.375 31.1805C216.581 31.9524 215.49 32.3383 214.103 32.3383V36.1975H212.238ZM212.304 30.666V22.2187C211.494 22.2187 210.866 22.4545 210.418 22.9262C209.97 23.3836 209.746 24.0268 209.746 24.8558V27.986C209.746 28.8293 209.97 29.4868 210.418 29.9585C210.866 30.4302 211.494 30.666 212.304 30.666ZM214.038 30.666C214.847 30.666 215.475 30.4302 215.923 29.9585C216.371 29.4868 216.595 28.8293 216.595 27.986V24.8558C216.595 24.0268 216.371 23.3836 215.923 22.9262C215.475 22.4545 214.847 22.2187 214.038 22.2187V30.666ZM226.167 32.5527C225.213 32.5527 224.375 32.3668 223.653 31.9952C222.944 31.6094 222.395 31.0805 222.005 30.4087C221.615 29.7226 221.42 28.9222 221.42 28.0075V24.8558C221.42 23.9553 221.615 23.1692 222.005 22.4974C222.395 21.8113 222.944 21.2825 223.653 20.9108C224.375 20.5249 225.213 20.332 226.167 20.332C227.121 20.332 227.951 20.5249 228.66 20.9108C229.382 21.2825 229.938 21.8113 230.328 22.4974C230.718 23.1692 230.914 23.9553 230.914 24.8558V26.9569H223.523V28.0075C223.523 28.9222 223.746 29.6154 224.194 30.0871C224.657 30.5588 225.315 30.7946 226.167 30.7946C226.889 30.7946 227.467 30.6731 227.901 30.4302C228.334 30.1729 228.609 29.7941 228.724 29.2938H230.849C230.704 30.2944 230.198 31.0876 229.331 31.6737C228.479 32.2597 227.424 32.5527 226.167 32.5527ZM223.523 24.8558V25.4346H228.833V24.8558C228.833 23.9553 228.602 23.2692 228.139 22.7975C227.691 22.3116 227.034 22.0686 226.167 22.0686C225.3 22.0686 224.642 22.3116 224.194 22.7975C223.746 23.2692 223.523 23.9553 223.523 24.8558ZM233.29 35.3399V30.5159H234.221C234.452 30.2729 234.698 29.8084 234.958 29.1223C235.233 28.4219 235.385 27.5358 235.413 26.4637L235.543 20.5464H243.455V30.5159H244.95V35.3399H243.022V32.3383H235.218V35.3399H233.29ZM236.454 30.5159H241.352V22.4117H237.559L237.473 26.5066C237.443 27.5929 237.314 28.4791 237.083 29.1652C236.866 29.8512 236.656 30.3015 236.454 30.5159ZM252.159 32.5527C251.206 32.5527 250.368 32.3668 249.646 31.9952C248.937 31.6094 248.388 31.0805 247.998 30.4087C247.608 29.7226 247.413 28.9222 247.413 28.0075V24.8558C247.413 23.9553 247.608 23.1692 247.998 22.4974C248.388 21.8113 248.937 21.2825 249.646 20.9108C250.368 20.5249 251.206 20.332 252.159 20.332C253.113 20.332 253.944 20.5249 254.652 20.9108C255.375 21.2825 255.931 21.8113 256.321 22.4974C256.711 23.1692 256.906 23.9553 256.906 24.8558V26.9569H249.515V28.0075C249.515 28.9222 249.739 29.6154 250.187 30.0871C250.65 30.5588 251.307 30.7946 252.159 30.7946C252.882 30.7946 253.46 30.6731 253.894 30.4302C254.327 30.1729 254.601 29.7941 254.717 29.2938H256.841C256.697 30.2944 256.191 31.0876 255.324 31.6737C254.471 32.2597 253.417 32.5527 252.159 32.5527ZM249.515 24.8558V25.4346H254.826V24.8558C254.826 23.9553 254.594 23.2692 254.132 22.7975C253.684 22.3116 253.027 22.0686 252.159 22.0686C251.293 22.0686 250.635 22.3116 250.187 22.7975C249.739 23.2692 249.515 23.9553 249.515 24.8558ZM260.582 36.1975V20.5464H262.707V22.7547H262.728C262.873 21.9971 263.227 21.4039 263.79 20.9752C264.368 20.5464 265.098 20.332 265.979 20.332C267.164 20.332 268.118 20.7322 268.841 21.5326C269.563 22.3187 269.924 23.3907 269.924 24.7486V28.1146C269.924 29.4868 269.563 30.5731 268.841 31.3735C268.132 32.1596 267.179 32.5527 265.979 32.5527C265.113 32.5527 264.39 32.3383 263.812 31.9095C263.234 31.4664 262.873 30.8661 262.728 30.1085H262.685L262.728 32.7886V36.1975H260.582ZM265.243 30.7089C266.037 30.7089 266.659 30.4802 267.107 30.0228C267.555 29.5511 267.778 28.8793 267.778 28.0075V24.8558C267.778 23.9982 267.555 23.3407 267.107 22.8833C266.659 22.4117 266.037 22.1758 265.243 22.1758C264.462 22.1758 263.848 22.4117 263.4 22.8833C262.952 23.355 262.728 24.0196 262.728 24.8772V28.0075C262.728 28.865 262.952 29.5297 263.4 30.0013C263.848 30.473 264.462 30.7089 265.243 30.7089ZM277.047 32.5527C275.789 32.5527 274.8 32.2382 274.078 31.6094C273.37 30.9661 273.015 30.1014 273.015 29.0151C273.015 27.9002 273.384 27.0283 274.121 26.3994C274.872 25.7562 275.891 25.4346 277.177 25.4346H280.645V24.3197C280.645 23.6337 280.428 23.1048 279.994 22.7332C279.575 22.3473 278.99 22.1543 278.239 22.1543C277.56 22.1543 276.989 22.3044 276.527 22.6046C276.079 22.8904 275.804 23.2692 275.703 23.7409H273.6C273.658 23.0548 273.896 22.4616 274.316 21.9614C274.735 21.4469 275.284 21.0467 275.963 20.7608C276.642 20.4749 277.408 20.332 278.261 20.332C279.648 20.332 280.746 20.6893 281.555 21.4039C282.378 22.1043 282.791 23.0548 282.791 24.2554V32.3383H280.688V30.1514H280.667C280.566 30.8947 280.189 31.4807 279.539 31.9095C278.889 32.3383 278.058 32.5527 277.047 32.5527ZM277.632 30.9018C278.499 30.9018 279.215 30.6874 279.778 30.2586C280.356 29.8155 280.645 29.251 280.645 28.5649V26.9569H277.22C276.584 26.9569 276.079 27.1284 275.703 27.4714C275.341 27.8145 275.161 28.279 275.161 28.865C275.161 29.5082 275.378 30.0085 275.811 30.3658C276.245 30.7231 276.852 30.9018 277.632 30.9018ZM295.007 35.3399V32.3383H286.553V20.5464H288.699V30.4302H293.164V20.5464H295.31V30.4302H296.936V35.3399H295.007ZM299.55 32.3383V20.5464H301.565V26.8068C301.565 27.2213 301.551 27.6644 301.522 28.1361C301.494 28.5935 301.457 29.0437 301.414 29.4868C301.37 29.9156 301.334 30.2801 301.306 30.5802L306.031 20.5464H308.74V32.3383H306.724V26.0564C306.724 25.6562 306.739 25.2274 306.767 24.77C306.797 24.2983 306.825 23.8552 306.854 23.4408C306.898 23.0119 306.941 22.6474 306.984 22.3473L302.259 32.3383H299.55ZM312.004 32.3383L314.952 27.8573C314.1 27.6429 313.427 27.2213 312.936 26.5924C312.445 25.9492 312.199 25.1916 312.199 24.3197C312.199 23.162 312.589 22.2473 313.37 21.5755C314.165 20.8894 315.248 20.5464 316.621 20.5464H321.736V32.3383H319.591V28.0075H317.141L314.475 32.3383H312.004ZM316.643 26.2279H319.591V22.3687H316.643C315.949 22.3687 315.393 22.5474 314.974 22.9048C314.569 23.2478 314.367 23.7195 314.367 24.3197C314.367 24.9058 314.569 25.3703 314.974 25.7134C315.393 26.0564 315.949 26.2279 316.643 26.2279ZM343.221 32.5527C341.761 32.5527 340.591 32.1525 339.709 31.3521C338.828 30.5373 338.387 29.4225 338.387 28.0075V24.8558C338.387 23.455 338.828 22.3545 339.709 21.554C340.591 20.7393 341.761 20.332 343.221 20.332C344.622 20.332 345.749 20.7036 346.602 21.4469C347.454 22.1758 347.902 23.1763 347.945 24.4484H345.822C345.779 23.7337 345.526 23.1835 345.063 22.7975C344.6 22.3973 343.987 22.1973 343.221 22.1973C342.397 22.1973 341.74 22.4331 341.248 22.9048C340.771 23.3621 340.533 24.0124 340.533 24.8558V28.0075C340.533 28.865 340.771 29.5225 341.248 29.9799C341.74 30.4373 342.397 30.666 343.221 30.666C343.987 30.666 344.6 30.473 345.063 30.0871C345.526 29.7012 345.779 29.1509 345.822 28.4362H347.945C347.902 29.7083 347.454 30.716 346.602 31.4593C345.749 32.1882 344.622 32.5527 343.221 32.5527ZM351.535 32.3383V20.5464H360.725V32.3383H358.58V22.476H353.681V32.3383H351.535ZM369.126 32.5098C367.667 32.5098 366.511 32.1096 365.659 31.3092C364.806 30.4945 364.38 29.3867 364.38 27.986V24.8987C364.38 23.4979 364.806 22.3973 365.659 21.5969C366.511 20.7822 367.667 20.3748 369.126 20.3748C370.586 20.3748 371.742 20.7822 372.595 21.5969C373.447 22.3973 373.873 23.4908 373.873 24.8772V27.986C373.873 29.3867 373.447 30.4945 372.595 31.3092C371.742 32.1096 370.586 32.5098 369.126 32.5098ZM369.126 30.6446C369.936 30.6446 370.571 30.423 371.034 29.9799C371.496 29.5225 371.727 28.8579 371.727 27.986V24.8987C371.727 24.0268 371.496 23.3693 371.034 22.9262C370.571 22.4688 369.936 22.2401 369.126 22.2401C368.318 22.2401 367.681 22.4688 367.219 22.9262C366.757 23.3693 366.526 24.0268 366.526 24.8987V27.986C366.526 28.8579 366.757 29.5225 367.219 29.9799C367.681 30.423 368.318 30.6446 369.126 30.6446ZM377.549 36.1975V20.5464H379.674V22.7547H379.695C379.84 21.9971 380.194 21.4039 380.757 20.9752C381.335 20.5464 382.065 20.332 382.946 20.332C384.131 20.332 385.085 20.7322 385.808 21.5326C386.53 22.3187 386.891 23.3907 386.891 24.7486V28.1146C386.891 29.4868 386.53 30.5731 385.808 31.3735C385.1 32.1596 384.146 32.5527 382.946 32.5527C382.08 32.5527 381.357 32.3383 380.779 31.9095C380.201 31.4664 379.84 30.8661 379.695 30.1085H379.652L379.695 32.7886V36.1975H377.549ZM382.21 30.7089C383.004 30.7089 383.626 30.4802 384.074 30.0228C384.522 29.5511 384.745 28.8793 384.745 28.0075V24.8558C384.745 23.9982 384.522 23.3407 384.074 22.8833C383.626 22.4117 383.004 22.1758 382.21 22.1758C381.43 22.1758 380.815 22.4117 380.367 22.8833C379.92 23.355 379.695 24.0196 379.695 24.8772V28.0075C379.695 28.865 379.92 29.5297 380.367 30.0013C380.815 30.473 381.43 30.7089 382.21 30.7089ZM394.057 32.3383V22.4331H389.787V20.5464H400.473V22.4331H396.203V32.3383H394.057ZM403.52 32.3383V20.5464H405.536V26.8068C405.536 27.2213 405.522 27.6644 405.493 28.1361C405.464 28.5935 405.428 29.0437 405.385 29.4868C405.341 29.9156 405.305 30.2801 405.276 30.5802L410.001 20.5464H412.71V32.3383H410.695V26.0564C410.695 25.6562 410.709 25.2274 410.738 24.77C410.767 24.2983 410.796 23.8552 410.825 23.4408C410.868 23.0119 410.911 22.6474 410.955 22.3473L406.23 32.3383H403.52ZM416.517 32.3383V20.5464H421.697C422.911 20.5464 423.872 20.8179 424.58 21.3611C425.303 21.9042 425.664 22.6332 425.664 23.5479C425.664 24.2626 425.432 24.8415 424.97 25.2845C424.508 25.7277 423.879 25.9635 423.084 25.9921V26.0779C423.995 26.1064 424.717 26.3852 425.252 26.914C425.801 27.4429 426.075 28.1432 426.075 29.0151C426.075 30.0299 425.7 30.8375 424.949 31.4378C424.197 32.0381 423.178 32.3383 421.892 32.3383H416.517ZM418.62 25.4561H421.675C422.268 25.4561 422.73 25.3203 423.063 25.0487C423.395 24.7629 423.561 24.3698 423.561 23.8696C423.561 23.3836 423.395 23.0048 423.063 22.7332C422.73 22.4616 422.268 22.3259 421.675 22.3259H418.62V25.4561ZM418.62 30.5588H421.849C422.514 30.5588 423.026 30.4087 423.388 30.1085C423.764 29.7941 423.952 29.3653 423.952 28.8221C423.952 28.279 423.764 27.8573 423.388 27.5572C423.026 27.2427 422.514 27.0855 421.849 27.0855H418.62V30.5588ZM429.513 32.3383V20.5464H431.659V25.3275H436.558V20.5464H438.703V32.3383H436.558V27.2571H431.659V32.3383H429.513ZM447.104 32.5098C445.645 32.5098 444.489 32.1096 443.637 31.3092C442.784 30.4945 442.358 29.3867 442.358 27.986V24.8987C442.358 23.4979 442.784 22.3973 443.637 21.5969C444.489 20.7822 445.645 20.3748 447.104 20.3748C448.564 20.3748 449.72 20.7822 450.573 21.5969C451.425 22.3973 451.851 23.4908 451.851 24.8772V27.986C451.851 29.3867 451.425 30.4945 450.573 31.3092C449.72 32.1096 448.564 32.5098 447.104 32.5098ZM447.104 30.6446C447.914 30.6446 448.549 30.423 449.012 29.9799C449.475 29.5225 449.705 28.8579 449.705 27.986V24.8987C449.705 24.0268 449.475 23.3693 449.012 22.9262C448.549 22.4688 447.914 22.2401 447.104 22.2401C446.296 22.2401 445.659 22.4688 445.197 22.9262C444.735 23.3693 444.504 24.0268 444.504 24.8987V27.986C444.504 28.8579 444.735 29.5225 445.197 29.9799C445.659 30.423 446.296 30.6446 447.104 30.6446ZM456.373 32.3383V20.5464H465.021V22.4974H458.519V32.3383H456.373ZM473.097 32.5098C471.638 32.5098 470.482 32.1096 469.629 31.3092C468.777 30.4945 468.35 29.3867 468.35 27.986V24.8987C468.35 23.4979 468.777 22.3973 469.629 21.5969C470.482 20.7822 471.638 20.3748 473.097 20.3748C474.557 20.3748 475.713 20.7822 476.565 21.5969C477.418 22.3973 477.844 23.4908 477.844 24.8772V27.986C477.844 29.3867 477.418 30.4945 476.565 31.3092C475.713 32.1096 474.557 32.5098 473.097 32.5098ZM473.097 30.6446C473.907 30.6446 474.542 30.423 475.005 29.9799C475.467 29.5225 475.698 28.8579 475.698 27.986V24.8987C475.698 24.0268 475.467 23.3693 475.005 22.9262C474.542 22.4688 473.907 22.2401 473.097 22.2401C472.288 22.2401 471.652 22.4688 471.19 22.9262C470.728 23.3693 470.496 24.0268 470.496 24.8987V27.986C470.496 28.8579 470.728 29.5225 471.19 29.9799C471.652 30.423 472.288 30.6446 473.097 30.6446ZM208.575 54.9669V43.1749H217.765V54.9669H215.619V45.1045H210.721V54.9669H208.575ZM221.593 58.8261V43.1749H223.718V45.3832H223.739C223.884 44.6257 224.237 44.0325 224.801 43.6038C225.379 43.1749 226.109 42.9605 226.99 42.9605C228.175 42.9605 229.129 43.3608 229.852 44.1612C230.574 44.9473 230.935 46.0193 230.935 47.3771V50.7432C230.935 52.1154 230.574 53.2017 229.852 54.0021C229.143 54.7882 228.19 55.1813 226.99 55.1813C226.124 55.1813 225.401 54.9669 224.823 54.5381C224.245 54.095 223.884 53.4946 223.739 52.7371H223.696L223.739 55.4171V58.8261H221.593ZM226.254 53.3374C227.048 53.3374 227.67 53.1088 228.118 52.6513C228.566 52.1797 228.789 51.5079 228.789 50.636V47.4844C228.789 46.6267 228.566 45.9693 228.118 45.5118C227.67 45.0402 227.048 44.8044 226.254 44.8044C225.473 44.8044 224.859 45.0402 224.411 45.5118C223.963 45.9835 223.739 46.6482 223.739 47.5058V50.636C223.739 51.4936 223.963 52.1582 224.411 52.6299C224.859 53.1016 225.473 53.3374 226.254 53.3374ZM239.163 55.1384C237.704 55.1384 236.548 54.7381 235.695 53.9377C234.843 53.123 234.416 52.0153 234.416 50.6146V47.5272C234.416 46.1265 234.843 45.0259 235.695 44.2255C236.548 43.4108 237.704 43.0034 239.163 43.0034C240.623 43.0034 241.779 43.4108 242.631 44.2255C243.484 45.0259 243.91 46.1194 243.91 47.5058V50.6146C243.91 52.0153 243.484 53.123 242.631 53.9377C241.779 54.7381 240.623 55.1384 239.163 55.1384ZM239.163 53.2731C239.973 53.2731 240.608 53.0516 241.071 52.6085C241.533 52.1511 241.764 51.4865 241.764 50.6146V47.5272C241.764 46.6553 241.533 45.9979 241.071 45.5548C240.608 45.0974 239.973 44.8687 239.163 44.8687C238.354 44.8687 237.718 45.0974 237.256 45.5548C236.793 45.9979 236.562 46.6553 236.562 47.5272V50.6146C236.562 51.4865 236.793 52.1511 237.256 52.6085C237.718 53.0516 238.354 53.2731 239.163 53.2731ZM248.431 54.9669V43.1749H257.08V45.126H250.577V54.9669H248.431ZM260.582 58.8261V43.1749H262.707V45.3832H262.728C262.873 44.6257 263.227 44.0325 263.79 43.6038C264.368 43.1749 265.098 42.9605 265.979 42.9605C267.164 42.9605 268.118 43.3608 268.841 44.1612C269.563 44.9473 269.924 46.0193 269.924 47.3771V50.7432C269.924 52.1154 269.563 53.2017 268.841 54.0021C268.132 54.7882 267.179 55.1813 265.979 55.1813C265.113 55.1813 264.39 54.9669 263.812 54.5381C263.234 54.095 262.873 53.4946 262.728 52.7371H262.685L262.728 55.4171V58.8261H260.582ZM265.243 53.3374C266.037 53.3374 266.659 53.1088 267.107 52.6513C267.555 52.1797 267.778 51.5079 267.778 50.636V47.4844C267.778 46.6267 267.555 45.9693 267.107 45.5118C266.659 45.0402 266.037 44.8044 265.243 44.8044C264.462 44.8044 263.848 45.0402 263.4 45.5118C262.952 45.9835 262.728 46.6482 262.728 47.5058V50.636C262.728 51.4936 262.952 52.1582 263.4 52.6299C263.848 53.1016 264.462 53.3374 265.243 53.3374ZM277.047 55.1813C275.789 55.1813 274.8 54.8668 274.078 54.2379C273.37 53.5947 273.015 52.73 273.015 51.6437C273.015 50.5288 273.384 49.6569 274.121 49.028C274.872 48.3848 275.891 48.0632 277.177 48.0632H280.645V46.9483C280.645 46.2623 280.428 45.7334 279.994 45.3618C279.575 44.9759 278.99 44.7829 278.239 44.7829C277.56 44.7829 276.989 44.933 276.527 45.2331C276.079 45.519 275.804 45.8978 275.703 46.3695H273.6C273.658 45.6834 273.896 45.0902 274.316 44.59C274.735 44.0754 275.284 43.6752 275.963 43.3894C276.642 43.1035 277.408 42.9605 278.261 42.9605C279.648 42.9605 280.746 43.3179 281.555 44.0325C282.378 44.7329 282.791 45.6834 282.791 46.884V54.9669H280.688V52.78H280.667C280.566 53.5232 280.189 54.1093 279.539 54.5381C278.889 54.9669 278.058 55.1813 277.047 55.1813ZM277.632 53.5304C278.499 53.5304 279.215 53.316 279.778 52.8872C280.356 52.4441 280.645 51.8795 280.645 51.1934V49.5854H277.22C276.584 49.5854 276.079 49.757 275.703 50.1C275.341 50.4431 275.161 50.9076 275.161 51.4936C275.161 52.1368 275.378 52.6371 275.811 52.9944C276.245 53.3517 276.852 53.5304 277.632 53.5304ZM286.185 54.9669V43.1749H288.981L290.52 47.6773C290.679 48.149 290.816 48.6064 290.932 49.0494C291.062 49.4925 291.156 49.8284 291.214 50.0571C291.257 49.8284 291.337 49.4925 291.452 49.0494C291.568 48.6064 291.705 48.1419 291.864 47.6558L293.316 43.1749H296.112V54.9669H294.075V53.1016C294.075 52.487 294.082 51.7866 294.096 51.0005C294.126 50.2001 294.154 49.3854 294.183 48.5563C294.227 47.7273 294.263 46.9483 294.291 46.2194C294.32 45.4761 294.349 44.8401 294.378 44.3113L292.232 51.4507H290.13L287.941 44.4184C287.97 44.8901 287.998 45.4833 288.028 46.1979C288.056 46.8983 288.085 47.6558 288.114 48.4706C288.143 49.271 288.165 50.0785 288.179 50.8933C288.208 51.6937 288.223 52.4298 288.223 53.1016V54.9669H286.185ZM299.181 54.9669V43.1749H301.977L303.516 47.6773C303.675 48.149 303.812 48.6064 303.928 49.0494C304.058 49.4925 304.152 49.8284 304.21 50.0571C304.253 49.8284 304.333 49.4925 304.448 49.0494C304.564 48.6064 304.701 48.1419 304.86 47.6558L306.312 43.1749H309.108V54.9669H307.071V53.1016C307.071 52.487 307.078 51.7866 307.093 51.0005C307.121 50.2001 307.15 49.3854 307.179 48.5563C307.223 47.7273 307.259 46.9483 307.288 46.2194C307.316 45.4761 307.346 44.8401 307.374 44.3113L305.229 51.4507H303.126L300.937 44.4184C300.966 44.8901 300.995 45.4833 301.024 46.1979C301.053 46.8983 301.081 47.6558 301.11 48.4706C301.139 49.271 301.161 50.0785 301.175 50.8933C301.204 51.6937 301.219 52.4298 301.219 53.1016V54.9669H299.181ZM312.546 54.9669V43.1749H314.562V49.4354C314.562 49.8499 314.548 50.293 314.519 50.7646C314.49 51.222 314.454 51.6723 314.411 52.1154C314.367 52.5442 314.33 52.9086 314.302 53.2088L319.027 43.1749H321.736V54.9669H319.72V48.685C319.72 48.2848 319.735 47.856 319.764 47.3986C319.793 46.9269 319.821 46.4838 319.851 46.0693C319.894 45.6405 319.937 45.276 319.98 44.9759L315.256 54.9669H312.546ZM325.564 58.8261V43.1749H327.688V45.3832H327.71C327.854 44.6257 328.209 44.0325 328.772 43.6038C329.35 43.1749 330.08 42.9605 330.961 42.9605C332.146 42.9605 333.1 43.3608 333.822 44.1612C334.545 44.9473 334.906 46.0193 334.906 47.3771V50.7432C334.906 52.1154 334.545 53.2017 333.822 54.0021C333.115 54.7882 332.161 55.1813 330.961 55.1813C330.094 55.1813 329.372 54.9669 328.793 54.5381C328.216 54.095 327.854 53.4946 327.71 52.7371H327.667L327.71 55.4171V58.8261H325.564ZM330.224 53.3374C331.019 53.3374 331.64 53.1088 332.088 52.6513C332.536 52.1797 332.76 51.5079 332.76 50.636V47.4844C332.76 46.6267 332.536 45.9693 332.088 45.5118C331.64 45.0402 331.019 44.8044 330.224 44.8044C329.444 44.8044 328.83 45.0402 328.382 45.5118C327.934 45.9835 327.71 46.6482 327.71 47.5058V50.636C327.71 51.4936 327.934 52.1582 328.382 52.6299C328.83 53.1016 329.444 53.3374 330.224 53.3374ZM343.134 55.1384C341.675 55.1384 340.518 54.7381 339.666 53.9377C338.813 53.123 338.387 52.0153 338.387 50.6146V47.5272C338.387 46.1265 338.813 45.0259 339.666 44.2255C340.518 43.4108 341.675 43.0034 343.134 43.0034C344.593 43.0034 345.749 43.4108 346.602 44.2255C347.454 45.0259 347.881 46.1194 347.881 47.5058V50.6146C347.881 52.0153 347.454 53.123 346.602 53.9377C345.749 54.7381 344.593 55.1384 343.134 55.1384ZM343.134 53.2731C343.943 53.2731 344.579 53.0516 345.041 52.6085C345.503 52.1511 345.735 51.4865 345.735 50.6146V47.5272C345.735 46.6553 345.503 45.9979 345.041 45.5548C344.579 45.0974 343.943 44.8687 343.134 44.8687C342.325 44.8687 341.689 45.0974 341.227 45.5548C340.764 45.9979 340.533 46.6553 340.533 47.5272V50.6146C340.533 51.4865 340.764 52.1511 341.227 52.6085C341.689 53.0516 342.325 53.2731 343.134 53.2731ZM351.535 54.9669V43.1749H356.715C357.929 43.1749 358.89 43.4465 359.598 43.9896C360.321 44.5328 360.682 45.2617 360.682 46.1765C360.682 46.8912 360.451 47.47 359.989 47.9131C359.526 48.3563 358.898 48.5921 358.103 48.6206V48.7064C359.013 48.735 359.736 49.0137 360.27 49.5426C360.819 50.0714 361.094 50.7718 361.094 51.6437C361.094 52.6585 360.718 53.466 359.967 54.0664C359.215 54.6667 358.197 54.9669 356.91 54.9669H351.535ZM353.638 48.0847H356.694C357.286 48.0847 357.749 47.9489 358.081 47.6773C358.413 47.3915 358.58 46.9984 358.58 46.4981C358.58 46.0121 358.413 45.6333 358.081 45.3618C357.749 45.0902 357.286 44.9544 356.694 44.9544H353.638V48.0847ZM353.638 53.1873H356.867C357.532 53.1873 358.045 53.0373 358.406 52.7371C358.782 52.4227 358.97 51.9939 358.97 51.4507C358.97 50.9076 358.782 50.4859 358.406 50.1858C358.045 49.8713 357.532 49.7141 356.867 49.7141H353.638V53.1873ZM368.021 55.1813C366.764 55.1813 365.774 54.8668 365.052 54.2379C364.344 53.5947 363.989 52.73 363.989 51.6437C363.989 50.5288 364.358 49.6569 365.095 49.028C365.846 48.3848 366.865 48.0632 368.151 48.0632H371.619V46.9483C371.619 46.2623 371.403 45.7334 370.969 45.3618C370.55 44.9759 369.965 44.7829 369.213 44.7829C368.534 44.7829 367.964 44.933 367.501 45.2331C367.053 45.519 366.778 45.8978 366.677 46.3695H364.575C364.632 45.6834 364.871 45.0902 365.29 44.59C365.709 44.0754 366.259 43.6752 366.937 43.3894C367.617 43.1035 368.382 42.9605 369.235 42.9605C370.622 42.9605 371.72 43.3179 372.529 44.0325C373.353 44.7329 373.765 45.6834 373.765 46.884V54.9669H371.663V52.78H371.641C371.54 53.5232 371.164 54.1093 370.514 54.5381C369.864 54.9669 369.032 55.1813 368.021 55.1813ZM368.607 53.5304C369.473 53.5304 370.189 53.316 370.752 52.8872C371.33 52.4441 371.619 51.8795 371.619 51.1934V49.5854H368.195C367.559 49.5854 367.053 49.757 366.677 50.1C366.316 50.4431 366.135 50.9076 366.135 51.4936C366.135 52.1368 366.352 52.6371 366.785 52.9944C367.219 53.3517 367.826 53.5304 368.607 53.5304ZM377.528 54.9669V43.1749H379.674V47.956H384.572V43.1749H386.718V54.9669H384.572V49.8856H379.674V54.9669H377.528ZM390.524 54.9669V43.1749H392.54V49.4354C392.54 49.8499 392.526 50.293 392.497 50.7646C392.468 51.222 392.432 51.6723 392.389 52.1154C392.345 52.5442 392.308 52.9086 392.28 53.2088L397.005 43.1749H399.714V54.9669H397.698V48.685C397.698 48.2848 397.713 47.856 397.742 47.3986C397.771 46.9269 397.799 46.4838 397.829 46.0693C397.872 45.6405 397.915 45.276 397.959 44.9759L393.234 54.9669H390.524ZM402.978 54.9669L405.926 50.4859C405.074 50.2715 404.402 49.8499 403.911 49.221C403.419 48.5778 403.174 47.8202 403.174 46.9483C403.174 45.7906 403.564 44.8759 404.344 44.204C405.139 43.518 406.222 43.1749 407.596 43.1749H412.71V54.9669H410.565V50.636H408.115L405.45 54.9669H402.978ZM407.617 48.8565H410.565V44.9973H407.617C406.923 44.9973 406.367 45.176 405.948 45.5333C405.544 45.8764 405.341 46.348 405.341 46.9483C405.341 47.5344 405.544 47.9989 405.948 48.3419C406.367 48.685 406.923 48.8565 407.617 48.8565ZM429.513 54.9669V39.3158H434.65C435.662 39.3158 436.536 39.5087 437.273 39.8946C438.01 40.2806 438.58 40.8237 438.985 41.5241C439.389 42.2101 439.592 43.032 439.592 43.9896C439.592 44.933 439.389 45.7549 438.985 46.4552C438.58 47.1413 438.002 47.6773 437.251 48.0632C436.514 48.4492 435.647 48.6421 434.65 48.6421H431.659V54.9669H429.513ZM431.659 46.7554H434.65C435.488 46.7554 436.153 46.5052 436.644 46.005C437.135 45.4904 437.381 44.8187 437.381 43.9896C437.381 43.1463 437.135 42.4746 436.644 41.9743C436.153 41.4598 435.488 41.2025 434.65 41.2025H431.659V46.7554ZM447.104 55.1384C445.645 55.1384 444.489 54.7381 443.637 53.9377C442.784 53.123 442.358 52.0153 442.358 50.6146V47.5272C442.358 46.1265 442.784 45.0259 443.637 44.2255C444.489 43.4108 445.645 43.0034 447.104 43.0034C448.564 43.0034 449.72 43.4108 450.573 44.2255C451.425 45.0259 451.851 46.1194 451.851 47.5058V50.6146C451.851 52.0153 451.425 53.123 450.573 53.9377C449.72 54.7381 448.564 55.1384 447.104 55.1384ZM447.104 53.2731C447.914 53.2731 448.549 53.0516 449.012 52.6085C449.475 52.1511 449.705 51.4865 449.705 50.6146V47.5272C449.705 46.6553 449.475 45.9979 449.012 45.5548C448.549 45.0974 447.914 44.8687 447.104 44.8687C446.296 44.8687 445.659 45.0974 445.197 45.5548C444.735 45.9979 444.504 46.6553 444.504 47.5272V50.6146C444.504 51.4865 444.735 52.1511 445.197 52.6085C445.659 53.0516 446.296 53.2731 447.104 53.2731ZM460.188 55.1813C458.728 55.1813 457.558 54.7811 456.676 53.9807C455.795 53.1659 455.354 52.0511 455.354 50.636V47.4844C455.354 46.0836 455.795 44.983 456.676 44.1826C457.558 43.3679 458.728 42.9605 460.188 42.9605C461.589 42.9605 462.716 43.3322 463.569 44.0754C464.421 44.8044 464.869 45.8049 464.912 47.077H462.789C462.746 46.3623 462.493 45.8121 462.03 45.4261C461.567 45.0259 460.954 44.8258 460.188 44.8258C459.364 44.8258 458.707 45.0617 458.215 45.5333C457.738 45.9907 457.5 46.641 457.5 47.4844V50.636C457.5 51.4936 457.738 52.1511 458.215 52.6085C458.707 53.0658 459.364 53.2946 460.188 53.2946C460.954 53.2946 461.567 53.1016 462.03 52.7157C462.493 52.3298 462.746 51.7795 462.789 51.0648H464.912C464.869 52.3369 464.421 53.3446 463.569 54.0878C462.716 54.8168 461.589 55.1813 460.188 55.1813ZM473.184 55.1813C471.725 55.1813 470.554 54.7811 469.673 53.9807C468.791 53.1659 468.35 52.0511 468.35 50.636V47.4844C468.35 46.0836 468.791 44.983 469.673 44.1826C470.554 43.3679 471.725 42.9605 473.184 42.9605C474.585 42.9605 475.713 43.3322 476.565 44.0754C477.418 44.8044 477.866 45.8049 477.909 47.077H475.785C475.742 46.3623 475.489 45.8121 475.026 45.4261C474.564 45.0259 473.95 44.8258 473.184 44.8258C472.361 44.8258 471.703 45.0617 471.212 45.5333C470.735 45.9907 470.496 46.641 470.496 47.4844V50.636C470.496 51.4936 470.735 52.1511 471.212 52.6085C471.703 53.0658 472.361 53.2946 473.184 53.2946C473.95 53.2946 474.564 53.1016 475.026 52.7157C475.489 52.3298 475.742 51.7795 475.785 51.0648H477.909C477.866 52.3369 477.418 53.3446 476.565 54.0878C475.713 54.8168 474.585 55.1813 473.184 55.1813ZM481.499 54.9669V43.1749H483.514V49.4354C483.514 49.8499 483.5 50.293 483.471 50.7646C483.442 51.222 483.406 51.6723 483.363 52.1154C483.319 52.5442 483.284 52.9086 483.254 53.2088L487.98 43.1749H490.688V54.9669H488.673V48.685C488.673 48.2848 488.687 47.856 488.716 47.3986C488.745 46.9269 488.774 46.4838 488.803 46.0693C488.846 45.6405 488.889 45.276 488.933 44.9759L484.208 54.9669H481.499ZM494.495 54.9669V43.1749H496.511V49.4354C496.511 49.8499 496.497 50.293 496.467 50.7646C496.439 51.222 496.402 51.6723 496.359 52.1154C496.315 52.5442 496.28 52.9086 496.251 53.2088L500.976 43.1749H503.685V54.9669H501.669V48.685C501.669 48.2848 501.684 47.856 501.712 47.3986C501.742 46.9269 501.77 46.4838 501.799 46.0693C501.843 45.6405 501.886 45.276 501.93 44.9759L497.204 54.9669H494.495Z" fill="#EDEDED"/>
</svg>
